<?xml version="1.0" standalone="no"?>
<!DOCTYPE svg PUBLIC "-//W3C//DTD SVG 20010904//EN"
 "http://www.w3.org/TR/2001/REC-SVG-20010904/DTD/svg10.dtd">
<svg version="1.0" xmlns="http://www.w3.org/2000/svg"
 width="96.000000pt" height="96.000000pt" viewBox="0 0 96.000000 96.000000"
 preserveAspectRatio="xMidYMid meet">
<metadata>
Created by potrace 1.14, written by Peter Selinger 2001-2017
</metadata>
<g transform="translate(0.000000,96.000000) scale(0.100000,-0.100000)"
fill="#000000" stroke="none">
<path d="M397 859 l-77 -99 -80 40 c-44 22 -80 38 -80 36 0 -2 7 -39 15 -82
13 -71 22 -125 24 -146 1 -5 127 -8 281 -8 154 0 280 3 281 8 0 4 2 14 4 22 1
8 6 33 9 55 4 23 8 50 10 62 3 11 7 37 10 57 l6 36 -80 -40 -79 -40 -81 100
c-45 55 -82 100 -83 99 -1 0 -37 -45 -80 -100z"/>
<path d="M204 519 c8 -55 52 -134 98 -174 43 -36 122 -65 178 -65 133 0 258
108 276 239 l6 41 -41 0 c-26 0 -41 -5 -42 -12 -4 -73 -57 -146 -124 -172 -36
-15 -93 -17 -134 -6 -69 18 -141 108 -141 178 0 7 -15 12 -41 12 l-41 0 6 -41z"/>
<path d="M225 236 c-65 -31 -122 -88 -153 -156 -15 -30 -27 -61 -28 -67 -2
-10 91 -13 436 -13 l439 0 -8 28 c-26 89 -95 170 -176 208 -61 29 -61 29 -138
3 -78 -27 -164 -27 -245 0 -75 26 -66 26 -127 -3z"/>
</g>
</svg>
